<svg width="48" height="48" viewBox="0 0 48 48" fill="none" xmlns="http://www.w3.org/2000/svg">
<path d="M42.7958 1.55421C42.9452 1.36853 43.0148 1.13108 42.9892 0.894088C42.9636 0.657098 42.8449 0.439987 42.6592 0.290516C42.4736 0.141045 42.2361 0.0714576 41.9991 0.0970628C41.7621 0.122668 41.545 0.241368 41.3955 0.427051L36.3878 6.65693L35.8455 1.67039C35.8198 1.43355 35.701 1.21664 35.5153 1.06739C35.3296 0.918131 35.0922 0.84875 34.8554 0.874508C34.6185 0.900267 34.4016 1.01905 34.2524 1.20474C34.1031 1.39042 34.0337 1.6278 34.0595 1.86463L34.6181 7.0012C31.6457 5.90768 28.1443 7.09448 26.5655 10.0582L17.4336 27.218C16.7915 28.4263 17.1011 29.9107 18.1735 30.7645C19.2614 31.6292 20.8209 31.5952 21.8747 30.6836L36.6226 17.9043C37.7937 16.8971 38.562 15.501 38.7862 13.9727C39.0104 12.4443 38.6755 10.8864 37.843 9.58525L42.9689 9.02777C43.2057 9.00201 43.4226 8.88323 43.5719 8.69754C43.7211 8.51186 43.7905 8.27448 43.7647 8.03764C43.739 7.80081 43.6202 7.5839 43.4345 7.43464C43.2488 7.28538 43.0115 7.216 42.7746 7.24176L37.7863 7.78429L42.7958 1.55421Z" fill="#FF724C"/>
<path d="M36.3512 22.7691C38.2209 26.6796 38.5759 31.1441 37.3475 35.3009C36.1192 39.4577 33.3946 43.0122 29.6996 45.2783C26.0046 47.5444 21.6012 48.3615 17.3392 47.5719C13.0772 46.7823 9.25879 44.442 6.62085 41.0026C3.98292 37.5632 2.7125 33.2686 3.05478 28.9477C3.39707 24.6267 5.32779 20.5856 8.47433 17.6045C11.6209 14.6233 15.7602 12.9133 20.0933 12.8046C24.4265 12.6959 28.6463 14.1961 31.9384 17.0156L35.7566 13.1958C36.0095 12.9429 36.3524 12.8009 36.7099 12.8009C37.0675 12.8009 37.4104 12.9429 37.6632 13.1958C37.916 13.4486 36.7099 15.6982 36.7099 16.0558C36.7099 16.4133 37.916 14.8495 37.6632 15.1023L27.2107 25.5565L20.8594 31.9078L16.8256 35.9416C17.8684 36.6314 19.0827 37.0174 20.3324 37.0563C21.5821 37.0952 22.818 36.7856 23.9018 36.1621C24.9856 35.5386 25.8744 34.6257 26.4689 33.5258C27.0634 32.4258 27.3401 31.1821 27.268 29.9339C27.2479 29.5765 27.3706 29.2258 27.609 28.9589C27.8475 28.692 28.1822 28.5308 28.5396 28.5107C28.8969 28.4906 29.2477 28.6133 29.5146 28.8518C29.7815 29.0902 29.9427 29.425 29.9628 29.7823C30.0715 31.6902 29.598 33.5862 28.6051 35.219C27.6123 36.8519 26.1468 38.1446 24.4028 38.926C22.6589 39.7074 20.7187 39.9406 18.8392 39.5948C16.9597 39.2489 15.2297 38.3403 13.8781 36.9893C12.1972 35.302 11.2168 33.0414 11.1338 30.6612C11.0508 28.281 11.8713 25.9575 13.4306 24.1573C14.9899 22.357 17.1725 21.2133 19.5402 20.9559C21.9078 20.6984 24.2853 21.3461 26.1951 22.7691L30.0234 18.934C27.2154 16.6027 23.6451 15.391 19.9981 15.5316C16.3512 15.6723 12.8848 17.1554 10.2647 19.6961C7.6446 22.2368 6.05559 25.6559 5.80285 29.2968C5.5501 32.9377 6.65144 36.5437 8.89534 39.422C11.1392 42.3004 14.3675 44.2482 17.96 44.8914C21.5526 45.5347 25.2561 44.8279 28.3593 42.9069C31.4624 40.9859 33.7465 37.9861 34.7727 34.4837C35.7989 30.9812 35.4949 27.2232 33.9191 23.9312C33.765 23.6087 33.7453 23.2382 33.8644 22.9012C33.9835 22.5641 34.2316 22.2882 34.5541 22.1341C34.8766 21.98 35.2471 21.9603 35.5841 22.0794C35.9212 22.1985 36.1971 22.4466 36.3512 22.7691Z" fill="#FF724C"/>
</svg>
